# xmcd
#
# Track frame offsets: 
#        150
#        18161
#        44238
#        74284
#        115208
#        134049
#        165513
#        182282
#        218687
#        235512
#        267464
#        293226
#        310973
#
# Disc length: 4463 seconds
#
# Revision: 1
# Processed by: cddbd v1.5.2PL0 Copyright (c) Steve Scherf et al.
# Submitted via: ExactAudioCopy v0.90b4
#
DISCID=bc116d0d
DTITLE=Paulinho Mixaria - Tem Tudo Pá Piorá
DYEAR=2004
DGENRE=Comédia
TTITLE0=Perdi A Manuela (Vaneirão)
TTITLE1=As Viagens Do Mixaria (Parte I) (Humorismo)
TTITLE2=Tem Tudo Pá Piorá (Vaneira)
TTITLE3=Novos Causos Dos Véios (Humorismo)
TTITLE4=Otra Cria Pá Dá Nome (Vaneirão)
TTITLE5=Inticando Com A Sogra (Humorismo)
TTITLE6=Teu Zóio (Marcha)
TTITLE7=Mais Proezas Do João Mentira (Humorismo)
TTITLE8=Sabelá (Vaneira)
TTITLE9=As Viagens Do Mixaria (Parte II) (Humorismo)
TTITLE10=Vai Morá Com A Sogra Tú (Xote)
TTITLE11=Assuntando (Humorismo)
TTITLE12=Ainda Tem Loco Mentindo (Bugio)
EXTD=Humorismo ID3G:   2 YEAR: 2004
EXTT0=
EXTT1=
EXTT2=
EXTT3=
EXTT4=
EXTT5=
EXTT6=
EXTT7=
EXTT8=
EXTT9=
EXTT10=
EXTT11=
EXTT12=
PLAYORDER=
